PathFileType	4	(X/Y/Z)	C:\Users\Alexander Denk\OneDrive - Universitaet Duisburg-Essen\Dokumente\GitHub\artisynth_dissertation_models\src\artisynth\models\gait_model\Models\EP010DR1980_BE_3Gang16\Input\EP010DR1980_BE_3Gang16_positions.trc
DataRate	CameraRate	NumFrames	NumMarkers	Units	OrigDataRate	OrigDataStartFrame	OrigNumFrames
100	100	4	41	m	100	82	110
Frame#	Time	LELB			LSHO			RSHO			LUPA			LBHD			RUPA			RBHD			C7			RWRB			LWRB			RELB			RBAK			LANK			LKNE			LPSI			T10			LBTO			RPSI			RKNE			LTIB			RTIB			LTHI			RBTO			RTOE			RANK			RHEE			RTHI			LHEE			LFRM			LWRA			RFRM			LFIN			RFIN			RFHD			RWRA			RASI			LTOE			STRN			CLAV			LASI			LFHD			
		X1	Y1	Z1	X2	Y2	Z2	X3	Y3	Z3	X4	Y4	Z4	X5	Y5	Z5	X6	Y6	Z6	X7	Y7	Z7	X8	Y8	Z8	X9	Y9	Z9	X10	Y10	Z10	X11	Y11	Z11	X12	Y12	Z12	X13	Y13	Z13	X14	Y14	Z14	X15	Y15	Z15	X16	Y16	Z16	X17	Y17	Z17	X18	Y18	Z18	X19	Y19	Z19	X20	Y20	Z20	X21	Y21	Z21	X22	Y22	Z22	X23	Y23	Z23	X24	Y24	Z24	X25	Y25	Z25	X26	Y26	Z26	X27	Y27	Z27	X28	Y28	Z28	X29	Y29	Z29	X30	Y30	Z30	X31	Y31	Z31	X32	Y32	Z32	X33	Y33	Z33	X34	Y34	Z34	X35	Y35	Z35	X36	Y36	Z36	X37	Y37	Z37	X38	Y38	Z38	X39	Y39	Z39	X40	Y40	Z40	X41	Y41	Z41	X42	Y42	Z42	X43	Y43	Z43	

83	0.82	0.536682250976563	1.19410119628906	-1.16998487822215	0.443816558837891	1.52972631835938	-1.18652821699778	0.063673957824707	1.52130200195312	-1.18849969832102	0.494443145751953	1.38740393066406	-1.18476824537913	0.328960113525391	1.66404028320313	-1.19527446333567	-0.00760803508758545	1.25717358398437	-1.18221853987376	0.178518417358398	1.67109362792969	-1.19690463606516	0.248205810546875	1.56512084960938	-1.24831413618724	0.00291278409957886	0.897045288085938	-1.10326792399089	0.537045227050781	0.918142395019531	-1.13092574278514	-0.0227015857696533	1.16324877929688	-1.16775012175242	0.106711029052734	1.46282849121094	-1.28377814070384	0.372269805908203	0.114389892578125	-1.12686667029063	0.423066284179688	0.55381689453125	-1.00228533522288	0.294913269042969	1.10218579101562	-1.29447513167063	0.267446411132812	1.28543811035156	-1.31966321150462	0.346656433105469	0.0537207527160644	-0.931361865679423	0.227216018676758	1.09866296386719	-1.28726823774974	0.147437057495117	0.506844604492187	-1.19969385878245	0.423897705078125	0.400325866699219	-1.02845527235667	0.146514282226563	0.347003814697266	-1.23238869825999	0.436808685302734	0.707932495117187	-1.03784653059642	0.22958039855957	0.0376538772583008	-1.05687043730418	0.208700103759766	0.0401401138305664	-1.11437667254607	0.210812683105469	0.0661307220458985	-1.27243799177806	0.257413421630859	0.0325636672973633	-1.33112796370188	0.122722801208496	0.667910461425781	-1.16439567152659	0.332682708740234	0.0904098739624023	-1.19566340986888	0.528854309082031	0.958205688476563	-1.09419133917491	0.480190887451172	0.928185363769531	-1.07962716643016	-0.00174199604988098	0.952037292480469	-1.08274627272288	0.519718811035156	0.854568237304688	-1.03351316420237	0.017429931640625	0.827676452636719	-1.0042667500178	0.18890087890625	1.74413269042969	-1.06390349928538	0.055010425567627	0.918289855957031	-1.04976356093089	0.133186157226562	1.06121350097656	-1.10599631563822	0.364951416015625	0.0569705581665039	-0.987244823137919	0.268203186035156	1.29914306640625	-1.0814363934199	0.257253265380859	1.4310048828125	-1.10322397009532	0.394240356445313	1.06448071289063	-1.12426816717784	0.316686767578125	1.73764428710938	-1.05811694304148
84	0.83	0.536552062988281	1.19254870605469	-1.17196630366643	0.443791778564453	1.52824011230469	-1.18721318324407	0.0636360015869141	1.52031066894531	-1.18794046290716	0.494240112304688	1.38571423339844	-1.18637053950628	0.329155364990234	1.66253210449219	-1.19548733409246	-0.0082396354675293	1.25634484863281	-1.18061865886052	0.178840591430664	1.66982934570313	-1.19672476085027	0.248017532348633	1.56386755371094	-1.24838503917058	0.00293179750442505	0.896889221191406	-1.09898563464483	0.537542358398438	0.916351440429688	-1.13445101817449	-0.0234991474151611	1.16255285644531	-1.16561955531438	0.106126815795898	1.461888671875	-1.2834092853864	0.372598388671875	0.105579727172852	-1.0978116367658	0.421992156982422	0.553571533203125	-1.00044651683172	0.294126434326172	1.10076110839844	-1.29536137278875	0.266931060791016	1.28434533691406	-1.32031448252996	0.349517517089844	0.0569459075927734	-0.898457609971364	0.226630264282227	1.09712744140625	-1.28785253794988	0.147658569335937	0.506718353271484	-1.20890753825506	0.423335662841797	0.398094390869141	-1.01885377391179	0.146790252685547	0.347306396484375	-1.24369619639715	0.436208557128906	0.708089782714844	-1.037100973924	0.229785705566406	0.0373378982543945	-1.07018348201116	0.208748657226562	0.0399535598754883	-1.12779939981302	0.210996200561523	0.0666984481811524	-1.28579496653875	0.257784362792969	0.0332631492614746	-1.34447906382879	0.123086067199707	0.667118225097656	-1.17014607127508	0.332177337646484	0.0773849334716797	-1.16435835154851	0.529560363769531	0.956248168945313	-1.09740454943975	0.481063446044922	0.926054809570312	-1.08264829905828	-0.0016402782201767	0.9520400390625	-1.07891876490911	0.521043212890625	0.852255737304688	-1.03719969828924	0.0182308540344238	0.828621032714844	-0.999316984971364	0.18942155456543	1.74273400878906	-1.06365908702215	0.0553958129882813	0.918823059082031	-1.04607697184881	0.132568710327148	1.05975964355469	-1.10642801364263	0.367302185058594	0.0569645500183105	-0.95455273326238	0.268235076904297	1.29744836425781	-1.08201418193181	0.257381011962891	1.42938244628906	-1.10349513705571	0.393995910644531	1.06409741210937	-1.12480182584127	0.31729833984375	1.73611010742187	-1.05790953715642
85	0.84	0.536405029296875	1.19083764648438	-1.17367950248718	0.443790924072266	1.52651867675781	-1.18789955711365	0.0636853866577149	1.51912731933594	-1.18737201881409	0.494096008300781	1.38370092773438	-1.18819202613831	0.329291931152344	1.66074548339844	-1.1957602481842	-0.00875680255889893	1.25528088378906	-1.1789651889801	0.179209884643555	1.66829895019531	-1.19657567024231	0.247899139404297	1.56248266601563	-1.24837254524231	0.00294319915771484	0.896553100585938	-1.09477522468567	0.538074645996094	0.914309997558594	-1.13786920261383	-0.0242328796386719	1.16166467285156	-1.1634379863739	0.105701316833496	1.46069763183594	-1.2830438785553	0.372779663085938	0.0976056060791016	-1.0681759967804	0.420961761474609	0.552583679199219	-0.999445672988891	0.293319702148438	1.09903942871094	-1.29613533973694	0.266343566894531	1.28307653808594	-1.32081580543518	0.352136627197266	0.0611357040405273	-0.866039743423462	0.226033172607422	1.09539782714844	-1.2882549533844	0.147878631591797	0.506629119873047	-1.21820388221741	0.422946380615234	0.39569189453125	-1.00992562294006	0.146969970703125	0.347778503417969	-1.25503777503967	0.435562805175781	0.707603271484375	-1.03689243507385	0.229935989379883	0.0370823554992676	-1.08351861000061	0.208712661743164	0.0398608818054199	-1.14127490818501	0.21082731628418	0.0679375305175781	-1.29940503883362	0.258093811035156	0.0339323425292969	-1.35782190895081	0.123543792724609	0.666256774902344	-1.17578763008118	0.331895080566406	0.065746467590332	-1.13240707397461	0.530264831542969	0.954071105957031	-1.10047004508972	0.481918731689453	0.923645385742188	-1.0856186580658	-0.00152518427371979	0.951856018066406	-1.07514476203918	0.522266174316406	0.849600341796875	-1.04087080574036	0.0190084533691406	0.829259033203125	-0.994452997207641	0.189937576293945	1.74110900878906	-1.06346738624573	0.0558819122314453	0.919031311035156	-1.04244268226624	0.132122650146484	1.05810778808594	-1.10665169334412	0.369622680664063	0.058047420501709	-0.922083444595337	0.268358367919922	1.29553942871094	-1.08256695747375	0.257587127685547	1.427546875	-1.10373174095154	0.393414581298828	1.06258679199219	-1.12624945640564	0.317876312255859	1.734447265625	-1.05770233345032
86	0.85	0.536305114746094	1.18883605957031	-1.17526555363337	0.443842010498047	1.52456457519531	-1.1885735522906	0.0638308753967285	1.51773083496094	-1.18681062809626	0.49405615234375	1.38168676757813	-1.18973459736506	0.329658416748047	1.65890808105469	-1.1956935207049	-0.00917483043670654	1.25401159667969	-1.17727879444758	0.179638031005859	1.66648291015625	-1.19645905415217	0.247942443847656	1.56084692382813	-1.2484011127154	0.00296108365058899	0.896013305664063	-1.09063351933161	0.538643188476563	0.912044128417969	-1.14113514725367	-0.0248573913574219	1.16055859375	-1.16121952358882	0.105461463928223	1.45921752929687	-1.28272350804011	0.373221740722656	0.0913326034545898	-1.03812508885066	0.419853271484375	0.550949096679688	-0.999411717573802	0.292431762695313	1.09708520507813	-1.29681854740779	0.265781036376953	1.28152062988281	-1.32136411015193	0.3549814453125	0.0666630706787109	-0.834079884688059	0.225456741333008	1.09350903320312	-1.28859711186091	0.148079559326172	0.506556579589844	-1.22742853275935	0.422542785644531	0.392727386474609	-1.00150723759333	0.147156631469727	0.348231353759766	-1.26633587376277	0.435051544189453	0.706437072753906	-1.03726419560115	0.229984771728516	0.0368711814880371	-1.09684960667292	0.2085693359375	0.0398030090332031	-1.15475180355708	0.211511947631836	0.0678119125366211	-1.31246434513728	0.258371856689453	0.034629093170166	-1.37117926518122	0.123644561767578	0.665502380371094	-1.18150293652217	0.332112731933594	0.0558652992248535	-1.10041460529963	0.530965576171875	0.951652770996094	-1.10338765064875	0.482721405029297	0.920985046386719	-1.08854091374079	-0.00138744854927063	0.951488220214844	-1.07143340794245	0.523382690429688	0.846676513671875	-1.04445681492488	0.0197682456970215	0.8296103515625	-0.989696187178294	0.190463195800781	1.73931726074219	-1.06330477635066	0.056372688293457	0.918883911132813	-1.03887853733699	0.131839599609375	1.05626025390625	-1.10661213032405	0.371857940673828	0.0604244575500488	-0.889861134688059	0.268566497802734	1.2934462890625	-1.08306808201472	0.257871643066406	1.42553820800781	-1.10392844883601	0.393564788818359	1.06191125488281	-1.12658242527644	0.318458892822266	1.73261389160156	-1.0575286304156
